<?xml version="1.0" standalone="no"?>
<!DOCTYPE svg PUBLIC "-//W3C//DTD SVG 20010904//EN"
 "http://www.w3.org/TR/2001/REC-SVG-20010904/DTD/svg10.dtd">
<svg version="1.0" xmlns="http://www.w3.org/2000/svg"
 width="510.000000pt" height="63.000000pt" viewBox="0 0 510.000000 63.000000"
 preserveAspectRatio="xMidYMid meet">

<g transform="translate(0.000000,63.000000) scale(0.100000,-0.100000)"
fill="#000000" stroke="none">
<path d="M130 600 c0 -27 -3 -30 -30 -30 l-30 0 0 -65 0 -65 -30 0 -31 0 3
-62 c3 -60 4 -63 28 -63 21 0 26 5 28 33 3 28 7 32 32 32 25 0 29 -4 32 -32 3
-29 6 -33 33 -33 27 0 30 4 33 33 3 28 7 32 32 32 25 0 29 -4 32 -32 2 -27 8
-34 30 -36 24 -3 27 1 30 30 3 29 6 33 33 33 27 0 30 -4 33 -33 3 -29 6 -33
30 -30 26 3 27 6 30 66 l3 62 -30 0 c-30 0 -30 0 -33 63 -3 62 -3 62 -35 65
-29 3 -33 7 -33 33 0 26 -3 29 -30 29 -27 0 -30 -3 -30 -30 0 -27 -3 -30 -30
-30 -27 0 -30 3 -30 30 0 28 -3 30 -35 30 -32 0 -35 -2 -35 -30z m70 -131 c0
-28 -2 -30 -32 -27 -28 2 -34 8 -36 31 -3 25 -1 27 32 27 33 0 36 -2 36 -31z
m120 1 c0 -27 -3 -30 -30 -30 -27 0 -30 3 -30 30 0 27 3 30 30 30 27 0 30 -3
30 -30z"/>
<path d="M452 538 l3 -33 123 -3 122 -3 0 -219 0 -220 -282 2 -283 3 -3 92 -3
93 -29 0 -30 0 0 -125 0 -125 345 0 345 0 0 285 0 285 -156 0 -155 0 3 -32z"/>
<path d="M830 405 l0 -135 30 0 30 0 0 97 0 97 38 -37 c21 -20 41 -37 45 -37
4 0 7 15 7 33 0 28 -8 41 -49 75 -30 26 -60 42 -75 42 l-26 0 0 -135z"/>
<path d="M1055 499 c-37 -34 -45 -48 -45 -76 l0 -35 43 37 42 36 3 -95 3 -96
29 0 30 0 0 135 0 135 -30 0 c-22 0 -43 -12 -75 -41z"/>
<path d="M1250 405 l0 -135 75 0 75 0 0 30 c0 29 -2 30 -45 30 -41 0 -45 2
-45 25 0 23 4 25 45 25 41 0 45 2 45 24 0 22 -5 25 -42 28 -39 3 -43 6 -46 31
-3 26 -2 27 42 27 42 0 46 2 46 25 0 24 -2 25 -75 25 l-75 0 0 -135z"/>
<path d="M1430 515 c0 -23 4 -25 45 -25 43 0 45 -1 45 -30 0 -29 -2 -30 -45
-30 -41 0 -45 -2 -45 -25 0 -23 4 -25 45 -25 41 0 45 -2 45 -25 0 -23 -4 -25
-45 -25 -43 0 -45 -1 -45 -30 0 -29 1 -30 50 -30 72 0 100 21 100 75 0 34 -4
44 -22 52 l-23 10 23 12 c17 9 22 21 22 51 0 51 -26 70 -97 70 -50 0 -53 -1
-53 -25z"/>
<path d="M1670 405 l0 -135 76 0 75 0 -3 28 c-3 24 -7 27 -45 30 l-43 3 0 80
0 79 45 0 c41 0 45 2 45 25 0 24 -2 25 -75 25 l-75 0 0 -135z"/>
<path d="M1840 515 c0 -23 4 -25 45 -25 l45 0 0 -79 0 -80 -42 -3 c-39 -3 -43
-6 -46 -30 -3 -27 -2 -28 48 -28 30 0 61 7 75 16 24 16 25 21 25 124 0 105 0
107 -25 118 -14 7 -48 12 -75 12 -47 0 -50 -2 -50 -25z"/>
<path d="M2220 405 l0 -135 75 0 75 0 0 30 c0 29 -2 30 -45 30 -41 0 -45 2
-45 25 0 23 4 25 45 25 41 0 45 2 45 25 0 23 -4 25 -45 25 -43 0 -45 1 -45 30
0 29 2 30 45 30 41 0 45 2 45 25 0 24 -2 25 -75 25 l-75 0 0 -135z"/>
<path d="M2400 515 c0 -23 4 -25 45 -25 43 0 45 -1 45 -30 0 -29 -2 -30 -45
-30 -41 0 -45 -2 -45 -25 0 -23 4 -25 45 -25 41 0 45 -2 45 -25 0 -23 -4 -25
-45 -25 -43 0 -45 -1 -45 -30 0 -29 2 -30 45 -30 26 0 59 7 75 15 26 14 30 21
30 59 0 35 -4 45 -22 53 l-23 10 23 12 c17 9 22 21 22 50 0 50 -30 71 -100 71
-47 0 -50 -2 -50 -25z"/>
<path d="M3360 405 l0 -135 30 0 30 0 0 135 0 135 -30 0 -30 0 0 -135z"/>
<path d="M5030 510 c0 -28 -3 -30 -35 -30 -31 0 -35 -3 -35 -25 0 -22 4 -25
35 -25 l35 0 0 -55 0 -55 -35 0 c-31 0 -35 -3 -35 -25 0 -24 2 -25 65 -25 l65
0 0 135 0 135 -30 0 c-27 0 -30 -3 -30 -30z"/>
<path d="M2648 459 c-25 -19 -28 -27 -28 -84 0 -59 2 -65 30 -85 39 -28 105
-25 105 5 0 15 -8 21 -35 25 -34 5 -35 6 -38 57 l-3 52 38 3 c30 2 38 7 38 23
0 30 -70 32 -107 4z"/>
<path d="M2772 458 c2 -18 11 -24 36 -26 32 -3 32 -4 32 -58 l0 -54 -35 0
c-31 0 -35 -3 -35 -25 0 -23 4 -25 40 -25 23 0 52 7 65 16 23 15 25 23 25 90
0 71 -1 74 -30 89 -16 8 -45 15 -65 15 -32 0 -36 -3 -33 -22z"/>
<path d="M2987 473 c-4 -3 -7 -41 -7 -84 0 -72 2 -79 27 -99 36 -28 108 -25
108 5 0 16 -8 21 -37 23 l-38 3 0 80 c0 76 -1 79 -23 79 -13 0 -27 -3 -30 -7z"/>
<path d="M3210 400 l0 -80 -35 0 c-31 0 -35 -3 -35 -26 0 -26 5 -26 58 -7 6 3
12 0 12 -6 0 -6 14 -11 30 -11 l30 0 0 105 0 105 -30 0 -30 0 0 -80z"/>
<path d="M3538 464 c-27 -14 -28 -18 -28 -89 0 -72 1 -75 30 -90 16 -8 45 -15
65 -15 31 0 35 3 35 25 0 22 -4 25 -35 25 -28 0 -35 4 -35 20 0 16 7 20 35 20
28 0 35 4 35 20 0 16 -7 20 -35 20 -46 0 -49 27 -2 32 24 2 33 8 35 26 3 20
-1 22 -35 22 -21 -1 -50 -8 -65 -16z"/>
<path d="M3664 465 c-9 -23 5 -35 42 -35 49 0 46 -28 -3 -32 -27 -2 -39 -8
-41 -20 -3 -15 4 -18 38 -18 88 0 129 58 71 99 -34 25 -99 28 -107 6z"/>
<path d="M3868 467 l-27 -12 59 -92 c33 -51 65 -93 70 -93 6 0 10 19 10 42 0
32 -10 56 -41 105 -23 35 -42 63 -43 63 0 -1 -13 -6 -28 -13z"/>
<path d="M4203 463 c-31 -21 -30 -53 0 -53 13 0 27 4 33 9 5 5 23 11 39 13 22
2 31 9 33 26 3 20 -1 22 -40 21 -24 0 -53 -7 -65 -16z"/>
<path d="M4330 455 c0 -22 4 -25 35 -25 46 0 49 -27 3 -32 -22 -2 -34 -9 -36
-20 -3 -15 4 -18 32 -18 29 0 36 -4 36 -20 0 -16 -7 -20 -35 -20 -31 0 -35 -3
-35 -25 0 -24 2 -25 65 -25 l65 0 0 90 c0 89 0 90 -30 105 -16 8 -45 15 -65
15 -31 0 -35 -3 -35 -25z"/>
<path d="M4550 375 l0 -105 30 0 30 0 0 80 0 80 35 0 c29 0 35 4 35 21 0 19
-4 20 -35 15 -22 -4 -35 -3 -35 4 0 5 -13 10 -30 10 l-30 0 0 -105z"/>
<path d="M4838 462 c-26 -16 -28 -21 -28 -88 0 -65 2 -73 25 -88 13 -9 42 -16
65 -16 36 0 40 2 40 25 0 22 -4 25 -35 25 l-35 0 0 55 0 55 35 0 c31 0 35 3
35 25 0 22 -4 25 -37 25 -21 0 -50 -8 -65 -18z"/>
<path d="M4036 413 c-27 -43 -36 -68 -36 -100 0 -24 4 -43 9 -43 13 0 121 181
115 192 -3 4 -16 8 -29 8 -18 0 -32 -14 -59 -57z"/>
<path d="M4702 444 c2 -23 9 -30 31 -32 18 -2 29 2 33 13 8 20 -3 32 -39 41
-27 6 -28 5 -25 -22z"/>
<path d="M4208 383 c-21 -13 -28 -26 -28 -50 0 -41 30 -63 87 -63 39 0 43 2
43 25 0 22 -4 25 -35 25 -28 0 -35 4 -35 20 0 16 7 20 36 20 28 0 35 3 32 18
-4 24 -65 27 -100 5z"/>
<path d="M3735 331 c-3 -6 -22 -11 -41 -11 -30 0 -34 -3 -34 -25 0 -23 4 -25
41 -25 47 0 101 28 97 50 -4 18 -53 26 -63 11z"/>
<path d="M853 192 c-7 -4 -14 -23 -15 -42 l-3 -35 60 0 60 0 3 34 c2 20 -2 37
-9 42 -19 11 -29 1 -30 -29 l0 -27 -12 25 c-17 37 -32 46 -54 32z"/>
<path d="M993 183 c-2 -6 -3 -24 -1 -40 3 -27 5 -28 57 -29 54 0 81 13 94 47
5 14 8 9 22 -36 8 -25 35 -18 35 9 0 14 5 28 11 31 5 4 8 12 6 18 -5 17 -218
17 -224 0z"/>
<path d="M1272 187 c-6 -7 -12 -26 -14 -42 -3 -30 -2 -30 44 -29 29 0 46 -3
45 -10 -1 -6 12 -11 28 -11 24 0 30 4 30 22 0 12 4 25 8 29 4 4 7 -7 7 -24 0
-29 3 -32 31 -32 28 0 31 3 27 24 -3 14 -1 31 3 38 6 9 9 4 9 -14 0 -18 5 -28
15 -28 8 0 15 9 15 20 0 26 22 26 38 -1 14 -21 57 -24 57 -2 0 6 3 15 8 19 4
4 7 -7 7 -24 0 -29 3 -32 29 -32 28 0 29 2 29 50 1 48 0 51 -21 44 -24 -8
-173 -8 -186 0 -5 3 -22 1 -39 -3 -18 -6 -32 -6 -34 0 -6 18 -62 -7 -69 -32
-7 -22 -7 -23 -8 -2 -1 21 -25 53 -40 53 -5 0 -13 -6 -19 -13z"/>
<path d="M1777 186 c-4 -11 -16 -13 -40 -9 -31 5 -35 3 -39 -21 -3 -14 0 -30
6 -35 14 -12 97 -11 113 1 7 5 14 5 18 -2 10 -16 43 -12 54 8 10 16 10 16 11
0 0 -10 7 -18 15 -18 8 0 15 9 15 19 0 10 7 22 16 25 33 13 0 25 -62 23 -43
-1 -69 2 -76 10 -14 17 -25 16 -31 -1z m-10 -48 c-3 -8 -6 -5 -6 6 -1 11 2 17
5 13 3 -3 4 -12 1 -19z"/>
<path d="M2002 193 c-20 -4 -23 -10 -20 -41 3 -34 6 -37 36 -40 24 -2 32 1 32
12 0 19 46 18 62 -1 13 -16 40 -17 55 -2 8 8 13 8 17 0 11 -17 44 -13 55 7 9
15 10 15 11 1 0 -14 15 -16 104 -15 57 0 107 4 111 8 4 4 15 2 25 -4 19 -12
55 -4 45 11 -3 5 -1 12 5 16 5 3 10 -3 10 -14 0 -12 7 -21 15 -21 8 0 15 9 15
20 0 11 6 20 14 20 7 0 16 -9 19 -20 6 -24 42 -27 55 -4 8 15 10 15 15 0 10
-25 54 -20 59 7 2 12 3 28 0 35 -5 15 -44 16 -60 0 -8 -8 -12 -8 -12 -1 0 15
-183 15 -192 -1 -6 -8 -10 -8 -16 1 -9 14 -352 16 -352 2 0 -16 -55 -4 -62 14
-4 9 -11 16 -15 16 -4 -1 -18 -4 -31 -6z"/>
<path d="M2793 193 c-18 -7 -17 -72 1 -79 8 -3 25 4 38 15 21 20 23 20 29 3 5
-13 19 -18 58 -20 49 -2 51 -1 52 25 l1 28 7 -25 c4 -14 15 -26 25 -28 15 -3
18 1 13 17 -3 12 -1 23 3 26 5 3 10 -5 12 -17 4 -30 32 -29 36 1 l4 24 12 -24
c15 -30 46 -37 63 -13 12 16 13 16 13 1 0 -9 7 -17 15 -17 8 0 15 9 15 19 0
28 28 35 32 8 3 -19 10 -22 56 -24 l53 -2 -3 32 -3 32 -123 0 c-91 0 -122 3
-122 13 0 16 -32 16 -48 0 -10 -10 -15 -10 -22 1 -7 13 -11 13 -25 1 -10 -8
-30 -13 -45 -12 -21 3 -29 -2 -35 -20 -7 -21 -8 -21 -12 10 -3 19 -10 32 -19
32 -8 0 -14 -5 -14 -10 0 -7 -6 -7 -19 0 -21 11 -29 11 -48 3z"/>
</g>
</svg>
